<svg width="24" height="24" viewBox="0 0 24 24" fill="none" xmlns="http://www.w3.org/2000/svg">
<path fill-rule="evenodd" clip-rule="evenodd" d="M2 0H22C22.5304 0 23.0391 0.210713 23.4142 0.585786C23.7893 0.960859 24 1.46957 24 2V22C24 22.5304 23.7893 23.0391 23.4142 23.4142C23.0391 23.7893 22.5304 24 22 24H2C1.46957 24 0.960859 23.7893 0.585786 23.4142C0.210713 23.0391 0 22.5304 0 22V2C0 1.46957 0.210713 0.960859 0.585786 0.585786C0.960859 0.210713 1.46957 0 2 0ZM2 16V22H22V20L17 15L15.41 16.59C15.0353 16.9625 14.5284 17.1716 14 17.1716C13.4716 17.1716 12.9647 16.9625 12.59 16.59L7 11L2 16ZM18.41 13.58L22 17.17V2H2V13.17L5.59 9.58C5.96473 9.2075 6.47163 8.99841 7 8.99841C7.52837 8.99841 8.03527 9.2075 8.41 9.58L14 15.17L15.59 13.58C15.9647 13.2075 16.4716 12.9984 17 12.9984C17.5284 12.9984 18.0353 13.2075 18.41 13.58ZM16.6667 9.49441C16.1734 9.82405 15.5933 10 15 10C14.2044 10 13.4413 9.68393 12.8787 9.12132C12.3161 8.55871 12 7.79565 12 7C12 6.40666 12.1759 5.82664 12.5056 5.33329C12.8352 4.83994 13.3038 4.45543 13.8519 4.22836C14.4001 4.0013 15.0033 3.94189 15.5853 4.05765C16.1672 4.1734 16.7018 4.45912 17.1213 4.87868C17.5409 5.29824 17.8266 5.83279 17.9424 6.41473C18.0581 6.99667 17.9987 7.59987 17.7716 8.14805C17.5446 8.69623 17.1601 9.16477 16.6667 9.49441ZM15.5556 6.16853C15.3911 6.05865 15.1978 6 15 6C14.7348 6 14.4804 6.10536 14.2929 6.2929C14.1054 6.48043 14 6.73479 14 7C14 7.19778 14.0586 7.39112 14.1685 7.55557C14.2784 7.72002 14.4346 7.84819 14.6173 7.92388C14.8 7.99957 15.0011 8.01937 15.1951 7.98079C15.3891 7.9422 15.5673 7.84696 15.7071 7.70711C15.847 7.56726 15.9422 7.38907 15.9808 7.19509C16.0194 7.00111 15.9996 6.80004 15.9239 6.61732C15.8482 6.43459 15.72 6.27841 15.5556 6.16853Z" fill="#CCCCCC"/>
</svg>
