<svg width="25" height="25" viewBox="0 0 25 25" fill="none" xmlns="http://www.w3.org/2000/svg">
<mask id="mask0_22_7" style="mask-type:alpha" maskUnits="userSpaceOnUse" x="0" y="0" width="25" height="25">
<rect x="0.201538" y="0.78384" width="24" height="24" fill="#D9D9D9"/>
</mask>
<g mask="url(#mask0_22_7)">
<path d="M12.2015 22.7838C10.8349 22.7838 9.5432 22.5213 8.32654 21.9963C7.10987 21.4713 6.04737 20.7547 5.13904 19.8463C4.2307 18.938 3.51404 17.8755 2.98904 16.6588C2.46404 15.4422 2.20154 14.1505 2.20154 12.7838C2.20154 11.4005 2.46404 10.1047 2.98904 8.89634C3.51404 7.68801 4.2307 6.62967 5.13904 5.72134C6.04737 4.81301 7.10987 4.09634 8.32654 3.57134C9.5432 3.04634 10.8349 2.78384 12.2015 2.78384C13.5849 2.78384 14.8807 3.04634 16.089 3.57134C17.2974 4.09634 18.3557 4.81301 19.264 5.72134C20.1724 6.62967 20.889 7.68801 21.414 8.89634C21.939 10.1047 22.2015 11.4005 22.2015 12.7838C22.2015 14.1505 21.939 15.4422 21.414 16.6588C20.889 17.8755 20.1724 18.938 19.264 19.8463C18.3557 20.7547 17.2974 21.4713 16.089 21.9963C14.8807 22.5213 13.5849 22.7838 12.2015 22.7838ZM12.2015 20.7338C12.6349 20.1338 13.0099 19.5088 13.3265 18.8588C13.6432 18.2088 13.9015 17.5172 14.1015 16.7838H10.3015C10.5015 17.5172 10.7599 18.2088 11.0765 18.8588C11.3932 19.5088 11.7682 20.1338 12.2015 20.7338ZM9.60154 20.3338C9.30154 19.7838 9.03904 19.213 8.81404 18.6213C8.58904 18.0297 8.40154 17.4172 8.25154 16.7838H5.30154C5.78487 17.6172 6.38904 18.3422 7.11404 18.9588C7.83904 19.5755 8.6682 20.0338 9.60154 20.3338ZM14.8015 20.3338C15.7349 20.0338 16.564 19.5755 17.289 18.9588C18.014 18.3422 18.6182 17.6172 19.1015 16.7838H16.1515C16.0015 17.4172 15.814 18.0297 15.589 18.6213C15.364 19.213 15.1015 19.7838 14.8015 20.3338ZM4.45154 14.7838H7.85154C7.80154 14.4505 7.76404 14.1213 7.73904 13.7963C7.71404 13.4713 7.70154 13.1338 7.70154 12.7838C7.70154 12.4338 7.71404 12.0963 7.73904 11.7713C7.76404 11.4463 7.80154 11.1172 7.85154 10.7838H4.45154C4.3682 11.1172 4.3057 11.4463 4.26404 11.7713C4.22237 12.0963 4.20154 12.4338 4.20154 12.7838C4.20154 13.1338 4.22237 13.4713 4.26404 13.7963C4.3057 14.1213 4.3682 14.4505 4.45154 14.7838ZM9.85154 14.7838H14.5515C14.6015 14.4505 14.639 14.1213 14.664 13.7963C14.689 13.4713 14.7015 13.1338 14.7015 12.7838C14.7015 12.4338 14.689 12.0963 14.664 11.7713C14.639 11.4463 14.6015 11.1172 14.5515 10.7838H9.85154C9.80154 11.1172 9.76404 11.4463 9.73904 11.7713C9.71404 12.0963 9.70154 12.4338 9.70154 12.7838C9.70154 13.1338 9.71404 13.4713 9.73904 13.7963C9.76404 14.1213 9.80154 14.4505 9.85154 14.7838ZM16.5515 14.7838H19.9515C20.0349 14.4505 20.0974 14.1213 20.139 13.7963C20.1807 13.4713 20.2015 13.1338 20.2015 12.7838C20.2015 12.4338 20.1807 12.0963 20.139 11.7713C20.0974 11.4463 20.0349 11.1172 19.9515 10.7838H16.5515C16.6015 11.1172 16.639 11.4463 16.664 11.7713C16.689 12.0963 16.7015 12.4338 16.7015 12.7838C16.7015 13.1338 16.689 13.4713 16.664 13.7963C16.639 14.1213 16.6015 14.4505 16.5515 14.7838ZM16.1515 8.78384H19.1015C18.6182 7.95051 18.014 7.22551 17.289 6.60884C16.564 5.99217 15.7349 5.53384 14.8015 5.23384C15.1015 5.78384 15.364 6.35467 15.589 6.94634C15.814 7.53801 16.0015 8.15051 16.1515 8.78384ZM10.3015 8.78384H14.1015C13.9015 8.05051 13.6432 7.35884 13.3265 6.70884C13.0099 6.05884 12.6349 5.43384 12.2015 4.83384C11.7682 5.43384 11.3932 6.05884 11.0765 6.70884C10.7599 7.35884 10.5015 8.05051 10.3015 8.78384ZM5.30154 8.78384H8.25154C8.40154 8.15051 8.58904 7.53801 8.81404 6.94634C9.03904 6.35467 9.30154 5.78384 9.60154 5.23384C8.6682 5.53384 7.83904 5.99217 7.11404 6.60884C6.38904 7.22551 5.78487 7.95051 5.30154 8.78384Z" fill="#777777"/>
</g>
</svg>
